{
    "asset": {
        "version": "2.0",
        "generator": "Open Asset Import Library (assimp v5.4.0)"
    },
    "extensionsUsed": [
        "KHR_materials_volume",
        "FB_ngon_encoding"
    ],
    "accessors": [
        {
            "bufferView": 0,
            "byteOffset": 0,
            "componentType": 5126,
            "count": 306,
            "type": "VEC3",
            "max": [
                0.5730879902839661,
                1.5237840414047241,
                0.8988779783248901
            ],
            "min": [
                -0.5730879902839661,
                -0.7119569778442383,
                -0.5751169919967651
            ]
        },
        {
            "bufferView": 1,
            "byteOffset": 0,
            "componentType": 5126,
            "count": 306,
            "type": "VEC3",
            "max": [
                1.0,
                0.9948229789733887,
                0.9460360407829285
            ],
            "min": [
                -1.0,
                -1.0,
                -0.9505747556686401
            ]
        },
        {
            "bufferView": 2,
            "byteOffset": 0,
            "componentType": 5126,
            "count": 306,
            "type": "VEC2",
            "max": [
                1.0,
                1.0
            ],
            "min": [
                0.0,
                0.0
            ]
        },
        {
            "bufferView": 3,
            "byteOffset": 0,
            "componentType": 5125,
            "count": 1200,
            "type": "SCALAR",
            "max": [
                305
            ],
            "min": [
                0
            ]
        }
    ],
    "buffers": [
        {
            "byteLength": 14592,
            "uri": "KnightPiece_0.bin"
        }
    ],
    "bufferViews": [
        {
            "buffer": 0,
            "byteOffset": 0,
            "byteLength": 3672,
            "target": 34962
        },
        {
            "buffer": 0,
            "byteOffset": 3672,
            "byteLength": 3672,
            "target": 34962
        },
        {
            "buffer": 0,
            "byteOffset": 7344,
            "byteLength": 2448,
            "target": 34962
        },
        {
            "buffer": 0,
            "byteOffset": 9792,
            "byteLength": 4800,
            "target": 34963
        }
    ],
    "materials": [
        {
            "name": "lambert2SG",
            "pbrMetallicRoughness": {
                "baseColorFactor": [
                    0.8100000023841858,
                    0.6800000071525574,
                    0.5,
                    1.0
                ],
                "metallicFactor": 0.0
            }
        }
    ],
    "meshes": [
        {
            "name": "meshes[0]",
            "primitives": [
                {
                    "mode": 4,
                    "material": 0,
                    "indices": 3,
                    "attributes": {
                        "POSITION": 0,
                        "NORMAL": 1,
                        "TEXCOORD_0": 2
                    }
                }
            ]
        }
    ],
    "nodes": [
        {
            "name": "KnightPiece",
            "children": [
                1
            ]
        },
        {
            "name": "Node",
            "mesh": 0,
            "extras": {
                "name": "Node"
            }
        }
    ],
    "scenes": [
        {
            "nodes": [
                0
            ]
        }
    ],
    "scene": 0
}